# xmcd CD database file
#
# Track frame offsets:
#	150
#	20158
#	36551
#	52211
#	67871
#	85502
#	103039
#	120472
#	135494
#	148842
#	160854
#	179812
#	194324
#	208078
#	224689
#
# Disc length: 3209 seconds
#
# Revision: 0
# Processed by: cddbd v1.4PL0 Copyright (c) Steve Scherf et al.
# Submitted via: Feurio! 1.65 - http://www.feurio.com
#
DISCID=ea0c870f
DTITLE=Johnny Cash - the man comes around
DYEAR=1900
DGENRE=
TTITLE0=The Man Comes Around - 01 - The Man Comes Around
TTITLE1=The Man Comes Around - 02 - Hurt
TTITLE2=The Man Comes Around - 03 - Give My Love To Rose(1)
TTITLE3=The Man Comes Around - 03 -give my love to rose
TTITLE4=The Man Comes Around - 04 - Bridge Over Troubled Waters
TTITLE5=The Man Comes Around - 05 - Hung My Head
TTITLE6=The Man Comes Around - 06 - First Time I Ever Saw Your Face.06
TTITLE7=The Man Comes Around - 07 - Personal Jesus
TTITLE8=The Man Comes Around - 08 - In My Life
TTITLE9=The Man Comes Around - 09 - Sam Hall
TTITLE10=The Man Comes Around - 10 - Danny Boy
TTITLE11=The Man Comes Around - 11 - Desperado
TTITLE12=The Man Comes Around - 12 - I'm So Lonesome I Could Cry
TTITLE13=The Man Comes Around - 13 - Tear Stained Letter
TTITLE14=The Man Comes Around - 14 - Streets of Laredo
EXTD=
EXTT0=
EXTT1=
EXTT2=
EXTT3=
EXTT4=
EXTT5=
EXTT6=
EXTT7=
EXTT8=
EXTT9=
EXTT10=
EXTT11=
EXTT12=
EXTT13=
EXTT14=
PLAYORDER=
